P2
# LEAD Tech.
40 40
255
255 255 255 255 255 255 255 255 255 255 255 255 255 255 255 255 255 255 255 255 255 255 226 196 175 175 231 255 255 255 255 255 255 255 255 255 255 255 255 255 255 255 255 255 255 255 255 255 255 255 255 255 255 255 255 255 255 255 255 255 255 221 173 187 209 208 162 122 254 255 255 255 255 255 255 255 255 255 255 255 255 255 255 255 255 255 255 255 255 255 255 255 255 255 255 255 255 255 255 255 237 129 210 255 255 255 226 218 97 206 255 255 255 255 255 255 255 255 255 255 255 255 255 255 255 255 255 255 255 255 255 255 255 255 255 255 255 255 255 255 188 136 255 255 255 255 255 247 228 118 171 255 255 255 255 255 255 255 255 255 255 255 255 255 255 255 255 255 255 255 255 255 255 255 255 255 255 255 255 246 101 250 255 255 255 255 255 255 255 219 88 255 255 255 255 255 255 255 255 255 255 255 255 255 255 255 255 255 255 255 255 255 255 255 255 255 255 255 255 238 101 255 255 255 255 255 255 255 255 255 255 255 255 255 255 255 255 255 255 255 255 255 255 255 255 255 255 255 255 255 255 255 255 255 255 255 255 183 110 175 62 139 224 255 255 255 255 255 255 255 255 255 255 255 255 255 255 255 255 255 255 255 255 255 255 255 255 255 255 255 255 255 255 255 255 242 6 0 0 182 10 0 0 85 255 255 255 255 255 255 255 255 255 255 255 255 255 255 255 255 255 255 255 255 255 255 255 255 255 255 255 255 255 255 255 137 0 14 11 34 14 15 15 0 251 255 255 255 255 255 255 255 255 255 255 255 255 255 255 255 255 255 255 255 255 255 255 255 255 255 255 255 255 255 255 156 19 55 51 19 18 18 11 0 255 255 255 255 255 255 255 255 255 255 255 255 255 255 255 255 255 255 255 255 255 255 255 255 255 255 255 255 255 198 56 0 32 29 37 33 19 11 0 1 0 103 251 255 255 255 255 255 255 255 255 255 255 255 255 255 255 255 255 255 255 255 255 255 255 255 255 249 53 0 17 24 31 31 27 23 17 11 0 1 11 0 0 125 255 255 255 255 255 255 255 255 255 255 255 255 255 255 255 255 255 255 255 255 255 255 195 0 17 28 28 28 29 30 27 23 16 8 3 12 13 9 10 0 35 255 255 255 255 255 255 255 255 255 255 255 255 255 255 255 255 255 255 255 255 177 0 27 31 31 31 31 30 29 27 25 22 22 21 17 14 11 8 9 5 10 255 255 255 255 255 255 255 255 255 255 255 255 255 255 255 255 255 255 210 0 29 32 33 33 33 32 31 30 29 27 25 23 21 18 16 13 10 6 7 6 25 255 255 255 255 255 255 255 255 255 255 255 255 255 255 255 255 255 5 27 32 34 35 34 33 33 33 31 29 28 26 24 22 19 17 14 11 8 5 6 0 91 255 255 255 255 255 255 255 255 255 255 255 255 255 255 255 96 15 32 34 35 35 36 45 54 54 46 35 28 26 25 23 19 18 15 12 10 6 2 8 0 217 255 255 255 255 255 255 255 255 255 255 255 255 255 245 0 30 33 35 35 38 60 85 100 98 81 56 35 26 24 23 21 17 16 13 9 7 3 1 4 50 255 255 255 255 255 255 255 255 255 255 255 255 255 117 14 32 34 35 36 58 99 133 148 141 116 81 47 28 24 23 21 17 16 12 10 6 4 0 4 0 234 255 255 255 255 255 255 255 255 255 255 255 255 22 25 33 35 34 42 82 133 166 177 168 140 98 57 31 24 23 20 17 16 12 10 8 3 0 0 0 129 255 255 255 255 255 255 255 255 255 255 255 240 0 29 33 34 34 50 97 148 178 184 175 146 102 59 32 23 22 19 18 15 13 9 6 4 0 0 0 49 255 255 255 255 255 255 255 255 255 255 255 186 4 29 32 34 34 50 96 144 171 177 165 135 93 53 29 23 22 19 17 15 12 10 7 4 0 0 0 0 255 255 255 255 255 255 255 255 255 255 255 150 7 28 31 33 33 44 81 122 147 152 139 109 73 41 25 22 21 18 16 14 12 9 6 3 0 0 0 0 255 255 255 255 255 255 255 255 255 255 255 137 8 27 30 31 32 36 58 87 108 112 100 76 49 30 23 22 20 17 15 13 10 8 5 3 0 0 0 0 255 255 255 255 255 255 255 255 255 255 255 147 5 26 28 30 31 31 38 53 66 68 60 45 31 24 22 20 19 16 14 12 10 7 5 1 0 0 0 0 255 255 255 255 255 255 255 255 255 255 255 181 0 24 27 28 29 29 29 32 36 37 33 27 23 23 21 19 17 15 13 11 8 6 3 0 0 0 0 0 255 255 255 255 255 255 255 255 255 255 255 236 0 22 24 26 27 28 28 27 26 26 25 24 23 21 19 18 16 14 12 10 7 5 2 0 0 0 0 37 255 255 255 255 255 255 255 255 255 255 255 255 9 16 22 24 25 25 26 25 25 24 23 22 21 20 18 16 14 12 10 8 6 4 1 0 0 0 0 117 255 255 255 255 255 255 255 255 255 255 255 255 105 3 20 21 23 23 23 23 23 22 21 20 19 18 16 14 13 11 9 7 4 2 0 0 0 0 0 227 255 255 255 255 255 255 255 255 255 255 255 255 237 0 16 18 20 21 21 21 20 20 19 18 17 16 14 13 11 9 7 5 3 0 0 0 0 0 31 255 255 255 255 255 255 255 255 255 255 255 255 255 255 71 1 15 17 18 18 18 18 18 17 16 15 14 12 11 9 7 5 3 1 0 0 0 0 0 188 255 255 255 255 255 255 255 255 255 255 255 255 248 231 203 0 10 14 15 15 16 16 15 15 13 13 12 10 9 7 5 3 1 0 0 0 0 0 46 221 231 249 255 255 255 255 255 255 255 255 255 254 237 217 191 117 0 10 11 12 13 13 12 11 11 10 9 7 6 4 3 0 0 0 0 0 0 0 167 187 219 238 254 255 255 255 255 255 255 255 255 252 234 215 182 164 80 0 7 9 9 9 9 9 8 7 6 5 3 2 0 0 0 0 0 0 0 135 157 184 217 236 253 255 255 255 255 255 255 255 255 254 239 222 195 162 149 67 0 2 5 6 6 6 5 4 3 1 0 0 0 0 0 0 0 0 113 145 164 198 223 241 255 255 255 255 255 255 255 255 255 255 252 234 216 189 157 129 73 0 0 0 1 1 1 1 0 0 0 0 0 0 0 0 20 100 136 160 191 217 235 252 255 255 255 255 255 255 255 255 255 255 255 253 238 220 198 168 131 88 30 0 0 0 0 0 0 0 0 0 0 0 4 52 103 140 171 200 222 240 254 255 255 255 255 255 255 255 255 255 255 255 255 255 255 251 238 221 200 169 132 90 43 11 0 0 0 0 0 1 21 60 104 143 175 201 222 239 252 255 255 255 255 255 255 255 255 255 255 255 255 255 255 255 255 255 255 255 250 241 228 211 190 167 144 127 119 120 131 150 172 194 213 229 241 251 255 255 255 255 255 255 255 255 255 255 255 255 255 255 255 255 255 255 255 255 255 255 255 255 255 255 255 255 255 255 255 255 255 255 255 255 255 255 255 255 255 255 255 255 255 255 255 255 255 255 255 