P2
# Created by IrfanView
40 40
255
255 255 254 254 254 254 254 254 254 254 254 254 254 254 254 254 254 
254 254 254 254 254 254 254 254 254 254 254 254 254 254 254 254 
254 254 254 254 254 255 255 255 255 255 255 255 255 255 255 244 211 204 206 206 207 205 206 206 
203 186 185 183 185 184 199 205 207 204 206 204 208 221 236 245 
254 255 255 255 255 255 255 254 223 105 95 96 96 96 97 66 24 18 19 19 20 18 19 19 
18 11 11 10 11 11 17 18 20 19 21 19 22 33 49 56 
81 97 95 97 94 150 254 254 192 3 0 0 0 1 0 0 1 0 0 0 0 1 1 1 
1 1 0 1 0 0 0 0 1 0 0 1 0 0 1 1 
0 1 1 0 0 86 255 254 191 3 7 12 11 11 11 12 20 40 40 39 40 39 40 40 
40 42 47 46 47 44 41 39 41 40 40 38 40 35 26 15 
11 11 11 8 0 87 255 254 190 2 113 178 175 176 176 177 200 224 224 223 224 223 224 223 
224 226 229 228 229 226 224 223 224 223 224 223 223 221 211 192 
173 176 175 137 3 88 255 255 191 2 162 254 254 254 254 254 254 254 253 253 254 254 254 254 
253 254 253 253 253 254 254 254 254 253 253 253 254 254 254 254 
254 254 254 226 20 88 255 254 191 2 146 254 254 246 237 253 254 254 255 253 254 254 254 253 
191 244 254 254 253 254 253 254 254 253 238 246 254 253 254 255 
253 254 254 237 24 88 255 255 191 2 109 254 254 168 103 253 253 249 138 219 253 254 254 248 
73 218 254 253 254 153 227 254 253 250 90 185 254 254 253 191 
138 255 254 246 48 88 255 254 191 2 87 254 254 208 56 240 253 251 103 157 253 254 254 235 
50 225 254 254 250 72 206 254 254 251 100 96 248 253 254 141 
137 255 254 251 94 88 255 255 191 2 66 254 254 217 28 225 254 254 127 134 253 254 254 242 
55 187 253 254 252 88 146 253 254 254 221 54 161 253 254 144 
118 254 254 253 104 88 255 255 191 2 57 251 254 216 52 238 254 254 133 96 253 254 254 253 
130 119 253 254 254 188 32 220 254 254 254 143 78 253 253 185 
32 220 255 252 105 88 255 255 191 2 52 248 254 218 68 245 254 253 119 157 254 254 253 251 
124 120 253 253 254 149 51 232 255 254 254 157 107 253 253 234 
39 174 254 253 104 88 255 255 191 2 53 248 254 226 45 219 255 250 97 187 254 253 254 223 
48 203 255 253 253 92 137 254 254 254 253 121 144 254 254 255 
141 133 254 252 103 88 255 255 191 2 53 249 254 250 82 184 253 253 112 152 254 254 254 208 
64 246 253 254 254 171 38 207 254 254 247 79 185 254 253 240 
102 119 254 253 106 88 255 255 191 2 52 249 254 251 81 181 254 254 130 148 254 254 254 229 
42 222 253 254 254 254 112 128 254 254 246 85 220 254 253 130 
58 219 255 252 103 88 255 255 191 2 60 251 254 253 120 157 254 253 124 149 254 254 253 251 
87 145 255 254 254 254 128 142 253 254 246 75 189 253 247 65 
199 254 254 253 106 88 255 255 191 2 61 253 253 252 99 169 254 242 72 179 254 254 253 254 
174 78 248 254 253 249 64 187 254 254 253 134 98 252 243 64 
233 254 254 252 104 88 255 255 191 2 60 252 253 234 54 206 254 173 56 233 254 253 254 253 
209 72 244 254 254 211 54 238 254 254 254 228 51 202 246 66 
204 254 254 252 105 88 255 255 191 2 55 250 254 197 66 245 254 122 124 254 254 254 254 254 
207 71 245 254 254 199 77 253 254 254 254 254 136 99 253 125 
115 253 254 252 105 88 255 255 191 2 52 247 254 195 79 250 254 185 68 237 253 254 254 254 
188 83 248 253 254 216 48 238 254 254 254 254 150 96 254 213 
42 212 254 253 104 88 255 255 191 2 55 250 254 195 79 251 254 242 72 166 253 254 254 254 
167 108 253 254 254 247 55 188 254 254 254 229 46 184 254 254 
92 170 254 253 113 88 255 255 191 2 68 254 254 180 80 251 254 254 189 63 242 254 254 254 
158 134 254 254 253 255 123 121 254 253 254 136 81 250 254 254 
131 186 254 254 116 88 255 255 191 3 83 254 254 167 104 254 254 254 247 75 189 255 254 254 
162 106 251 254 254 254 164 104 253 254 252 103 170 254 254 253 
243 249 254 254 115 88 255 255 192 2 93 254 254 176 105 254 254 254 254 129 164 255 254 254 
205 54 238 254 254 255 139 135 253 254 252 103 174 253 253 254 
254 255 254 254 118 88 255 254 191 2 97 254 254 113 120 254 254 254 250 86 175 254 254 254 
241 69 208 254 254 254 134 157 254 254 253 122 147 94 84 99 
95 98 95 104 71 88 255 255 192 3 94 254 253 72 146 254 254 254 220 43 228 254 254 254 
253 105 165 254 254 254 136 149 254 254 253 221 113 1 1 1 
1 1 0 2 5 88 255 254 191 2 97 253 253 108 87 245 254 254 194 77 250 254 254 254 
253 106 161 254 254 254 135 132 254 254 254 255 95 0 1 1 
1 1 1 1 0 87 255 255 191 2 89 253 254 224 51 181 254 254 192 88 251 254 254 254 
230 52 202 254 254 253 108 157 254 254 254 254 69 0 5 12 
13 9 9 3 2 88 254 255 192 3 72 255 254 252 129 133 253 254 192 86 252 253 254 254 
164 74 246 254 254 233 42 201 254 254 254 254 59 0 70 187 
185 159 110 13 1 87 254 255 191 2 79 254 254 253 135 131 253 253 189 83 252 254 253 254 
127 157 255 254 254 209 109 248 254 254 254 254 59 0 97 253 
252 203 50 2 2 120 254 255 191 2 95 254 254 254 202 211 253 255 232 192 253 254 253 254 
238 246 253 254 253 254 249 254 253 254 254 254 60 1 96 254 
181 26 0 0 55 232 255 254 191 2 92 254 253 254 254 253 254 253 254 254 254 254 254 254 
254 254 254 254 254 254 254 253 254 253 254 253 58 0 98 169 
12 1 1 59 229 254 255 255 191 3 97 254 253 254 254 254 254 254 254 254 254 254 254 254 
254 254 254 254 254 255 254 254 254 254 254 254 63 1 42 22 
1 3 78 228 253 254 255 255 191 2 86 254 254 254 255 255 254 252 243 238 240 238 239 238 
240 239 240 239 240 239 240 238 239 238 239 238 87 1 2 1 
4 107 236 252 251 253 255 255 191 3 38 133 130 123 119 118 120 105 72 55 60 56 59 55 
59 57 60 55 59 57 59 56 59 56 60 56 34 0 0 4 
101 240 253 252 252 253 255 254 191 3 1 0 0 0 1 1 0 0 0 0 1 0 0 0 
0 0 0 0 0 0 0 0 0 0 0 1 1 0 4 102 
240 252 252 252 252 253 255 254 191 3 0 1 0 2 6 6 6 11 18 19 19 18 18 18 
19 18 18 18 19 18 20 18 19 18 19 20 19 22 103 237 
252 251 252 252 252 253 255 254 224 133 131 131 131 139 160 161 162 178 201 207 209 208 209 207 
209 208 208 208 208 208 209 207 209 207 209 207 209 214 249 252 
251 252 252 252 252 253 255 254 253 253 254 254 254 253 253 253 253 253 253 253 253 253 253 253 
253 253 253 253 253 253 253 253 253 254 253 252 253 253 252 252 
252 251 252 252 252 253 255 