P2
# Created by IrfanView
40 40
255
253 253 253 253 253 253 253 253 253 253 253 253 253 253 253 253 253 
253 253 251 253 253 253 253 253 253 253 253 253 253 253 253 253 
253 253 253 253 253 253 253 253 253 253 253 253 253 253 253 253 253 253 253 253 253 253 253 253 
253 245 117 99 165 195 245 251 251 253 253 253 253 253 253 253 
253 253 253 253 253 253 253 253 253 253 253 253 253 253 253 253 253 253 253 253 253 253 253 253 
235 93 99 117 99 59 61 69 83 123 219 253 253 253 253 253 
253 253 253 253 253 253 253 253 253 253 253 253 253 253 253 253 253 253 253 253 253 253 243 195 
75 117 237 237 243 221 187 187 165 123 53 187 251 251 253 253 
253 253 253 253 253 253 253 253 253 253 253 253 253 253 253 253 253 253 253 253 251 205 85 69 
133 229 235 237 235 237 237 237 237 243 139 61 107 221 253 253 
253 253 253 253 253 253 253 253 253 253 253 253 253 253 253 253 253 253 245 205 133 59 165 235 
237 237 235 237 229 237 229 237 235 229 237 229 141 75 235 253 
253 253 253 253 253 253 253 253 253 253 253 253 253 253 253 253 253 219 85 61 125 211 237 235 
237 229 235 235 237 235 235 235 237 235 237 235 237 141 109 245 
253 253 253 253 253 253 253 253 253 253 253 253 253 253 253 245 179 61 131 219 237 237 235 237 
229 237 235 237 235 235 237 235 235 235 229 237 235 229 99 109 
243 253 253 253 253 253 253 253 253 253 253 253 253 253 243 109 67 173 237 235 235 237 235 235 
237 235 237 229 235 237 229 237 235 237 235 235 237 235 229 109 
131 253 253 253 253 253 253 253 253 253 253 253 253 237 109 115 221 237 235 237 237 235 235 237 
235 235 235 237 235 235 235 237 229 237 235 237 235 235 235 229 
85 213 253 253 253 253 253 253 253 253 253 253 243 107 123 229 235 237 235 237 229 235 237 229 
235 237 235 235 235 237 235 235 235 235 237 229 235 237 235 235 
171 107 251 253 253 253 253 253 253 253 253 253 147 115 237 235 237 229 237 235 235 237 235 235 
237 229 237 235 237 229 237 237 235 237 237 235 237 235 237 237 
229 85 203 253 253 253 253 253 253 253 253 235 83 221 235 235 235 235 235 237 235 235 237 235 
235 235 237 229 237 235 237 229 235 237 229 235 235 237 229 235 
235 165 133 253 253 253 253 253 253 253 253 165 147 237 237 235 237 235 237 229 237 235 229 237 
235 235 237 235 235 235 235 237 235 235 237 235 237 235 235 237 
235 219 83 243 253 253 253 253 253 253 245 91 213 237 229 235 237 229 237 235 235 237 235 237 
237 235 235 237 235 237 237 235 235 237 235 237 229 237 235 235 
237 237 117 195 253 253 253 253 253 253 187 109 237 237 235 235 235 235 235 235 237 235 235 235 
229 237 235 229 237 235 229 237 235 229 237 235 235 235 237 235 
229 237 171 171 253 253 253 253 253 251 85 205 229 237 235 237 237 235 237 237 229 235 237 235 
237 235 237 235 235 237 235 237 237 235 235 235 235 237 229 237 
235 237 205 117 253 253 253 253 253 195 99 237 235 235 235 229 237 235 229 237 235 237 229 237 
235 235 235 237 235 235 235 229 237 235 237 237 235 237 235 235 
235 235 227 69 243 253 253 253 253 123 189 235 235 237 235 237 235 235 235 237 235 235 237 235 
235 237 237 229 235 237 235 237 235 237 229 235 237 229 235 237 
235 237 237 139 163 253 253 253 253 91 221 237 235 229 237 235 235 237 237 235 235 237 229 237 
235 229 237 235 237 229 237 235 235 237 235 235 235 237 235 235 
237 229 235 213 77 251 253 253 229 83 229 235 237 235 235 237 235 237 229 235 237 235 235 235 
235 237 235 235 235 235 237 237 235 235 237 237 235 235 235 237 
229 235 229 235 85 227 253 253 187 115 235 237 235 235 237 237 229 237 235 237 229 237 235 237 
235 235 237 237 235 237 235 229 237 235 229 237 235 237 237 235 
235 237 235 229 125 181 253 253 133 133 229 229 235 237 229 235 235 237 235 235 235 235 237 229 
237 237 229 235 237 229 237 235 235 237 235 235 237 229 235 237 
229 237 235 235 157 139 253 253 131 179 219 235 237 235 237 235 237 235 235 237 235 235 237 235 
235 235 235 237 235 235 235 235 237 235 235 237 237 235 235 235 
237 235 235 235 173 131 253 253 133 157 235 229 235 235 235 237 229 235 237 235 235 237 229 237 
235 237 237 235 235 237 237 237 229 235 237 229 235 237 237 235 
235 237 235 229 203 107 253 253 155 125 227 235 237 235 237 235 235 237 229 237 237 235 237 235 
235 235 229 237 235 229 237 235 235 237 235 235 235 229 237 235 
235 235 229 229 205 75 253 253 211 83 203 229 235 229 235 237 235 235 235 237 229 235 235 237 
229 237 235 235 237 235 235 235 237 235 235 237 237 235 235 237 
237 235 235 229 219 83 253 253 251 69 203 229 229 235 229 229 229 235 235 235 237 235 235 237 
237 235 235 237 235 235 237 235 229 237 237 229 237 235 235 229 
221 229 229 221 219 77 253 253 253 125 155 227 227 227 229 235 235 229 237 229 235 235 237 229 
235 235 237 229 235 237 229 237 235 235 235 235 235 237 237 235 
227 229 221 227 179 75 253 253 253 205 67 227 229 213 235 229 235 235 235 229 237 235 235 237 
235 237 235 237 235 237 235 235 235 237 237 235 237 229 237 235 
229 229 227 227 93 187 253 253 253 251 69 197 229 235 229 229 229 235 229 235 237 237 235 235 
237 229 235 235 235 235 235 237 235 237 229 235 235 235 235 237 
235 227 235 123 101 251 253 253 253 253 155 107 219 219 229 235 229 235 235 235 235 229 237 235 
237 235 235 237 235 229 235 229 237 235 235 237 235 237 235 235 
229 219 117 101 243 253 253 253 253 253 235 61 179 213 229 211 227 229 235 229 235 237 235 235 
235 235 237 219 221 219 229 235 235 237 235 235 235 235 235 237 
203 85 93 243 253 253 253 253 253 253 253 179 91 189 203 219 219 229 229 235 235 235 235 237 
235 235 229 227 229 229 235 229 235 235 229 229 229 237 227 163 
59 125 237 253 253 253 253 253 253 253 253 253 133 59 107 173 187 205 221 235 229 235 235 235 
235 229 235 229 229 221 213 235 229 227 235 211 205 115 59 93 
173 251 253 253 253 253 253 253 253 253 253 253 243 141 123 45 101 179 213 213 205 229 221 237 
237 219 213 219 213 203 195 197 181 203 141 67 61 123 195 251 
253 253 253 253 253 253 253 253 253 253 253 253 253 253 253 203 75 51 67 133 179 203 203 195 
179 61 51 45 45 51 43 35 35 37 59 171 235 253 253 253 
253 253 253 253 253 253 253 253 253 253 253 253 253 253 253 253 251 221 131 59 61 83 77 75 
67 147 189 195 195 195 197 203 197 203 237 253 253 253 253 253 
253 253 253 253 253 253 253 253 253 253 253 253 253 253 253 253 253 253 253 251 243 245 251 251 
251 253 253 253 253 253 253 253 253 253 253 253 253 253 253 253 
253 253 253 253 253 253 253 253 253 253 253 253 253 253 253 253 253 253 253 253 253 253 253 253 
253 253 253 253 253 253 253 253 253 253 253 253 253 253 253 253 
253 253 253 253 253 253 253 
