P2
# Created by IrfanView
40 40
255
255 255 255 255 255 255 255 255 255 255 255 255 255 255 255 255 255 
255 255 255 255 255 255 255 255 255 255 255 255 255 255 255 255 
255 255 255 255 254 254 254 254 255 254 254 250 234 226 240 252 255 254 254 254 255 255 255 255 
255 255 255 255 255 255 255 255 255 255 255 255 255 255 255 255 
255 255 255 255 255 255 255 254 254 255 241 117 39 30 53 137 236 254 254 255 255 255 255 255 
255 255 255 255 255 255 255 255 255 255 255 255 255 255 255 255 
255 255 255 255 255 255 255 255 254 246 88 3 1 0 1 3 104 249 255 255 255 255 255 255 
255 255 255 255 255 255 255 255 255 255 255 255 255 255 255 255 
255 255 255 255 255 255 255 255 255 149 4 1 8 59 33 0 9 180 254 255 255 255 255 255 
255 255 255 255 255 255 255 255 255 255 255 255 255 255 255 255 
255 255 255 255 255 255 255 254 244 43 1 12 162 246 226 38 1 65 250 254 255 255 255 255 
255 255 255 255 255 255 255 255 255 255 255 255 255 255 255 255 
255 255 255 255 255 255 255 255 192 4 1 112 253 254 255 153 6 8 215 255 255 255 255 255 
255 255 255 255 255 255 255 255 255 255 255 255 255 255 255 255 
255 255 255 255 255 255 255 255 135 0 10 218 254 255 255 199 16 1 145 254 255 255 255 255 
255 255 255 255 255 255 255 255 255 255 255 255 255 255 255 255 
255 255 255 255 255 255 255 254 93 0 56 253 255 255 255 248 66 1 92 254 255 255 255 255 
255 255 255 255 255 255 255 255 255 255 255 255 255 255 255 255 
255 255 255 255 255 255 255 252 74 1 87 254 255 255 255 252 73 1 80 255 255 255 255 255 
255 255 255 255 255 255 255 255 255 255 255 255 255 255 255 255 
255 255 255 253 255 254 255 252 72 1 61 253 255 255 255 251 67 1 76 255 255 255 255 255 
255 255 255 255 255 255 255 255 255 255 255 255 255 255 254 254 
253 229 186 105 219 254 255 254 106 1 4 158 251 255 255 239 34 0 77 255 255 255 255 255 
255 255 255 255 255 255 255 255 255 255 255 255 253 240 226 187 
103 40 53 75 46 206 254 255 199 14 1 13 112 220 242 162 4 1 71 254 254 255 255 255 
255 255 254 254 255 255 255 254 254 250 237 191 107 59 47 62 
129 207 244 230 64 132 255 255 250 126 6 1 4 39 66 21 1 1 30 235 254 254 255 255 
255 254 254 255 254 252 240 229 193 111 62 58 124 184 219 242 
254 242 179 63 108 235 255 254 255 245 103 4 1 1 1 1 1 1 2 119 248 255 255 255 
255 255 250 231 183 117 72 56 67 127 198 234 253 254 255 237 
175 71 55 155 245 254 255 255 255 255 245 154 60 16 0 0 0 1 1 8 104 208 238 242 
231 195 99 55 74 123 182 207 235 252 255 254 246 211 134 58 
61 148 228 253 255 254 255 255 255 255 255 254 243 212 166 132 89 28 1 1 2 20 44 49 
34 16 122 208 243 253 254 255 254 254 251 183 71 45 106 175 
231 253 255 255 255 255 255 255 255 255 255 255 254 255 254 254 253 237 148 29 1 2 1 0 
1 103 252 255 254 255 255 255 251 209 91 52 167 233 252 255 
254 255 255 255 255 255 255 255 255 255 254 255 254 255 254 254 254 254 255 186 19 2 1 2 
0 139 255 255 255 255 247 203 111 42 126 232 254 254 255 255 
254 254 255 255 255 255 255 255 255 255 255 255 255 254 255 255 255 254 255 252 90 1 4 0 
0 130 254 254 235 163 83 36 94 189 253 255 255 255 255 255 
255 255 255 255 255 255 255 255 255 255 255 255 254 255 255 255 255 254 255 254 108 1 1 0 
0 124 222 158 64 64 90 41 139 239 255 254 254 254 254 255 
255 255 255 255 255 255 255 255 255 255 255 255 254 255 255 255 255 255 255 221 31 1 2 0 
1 38 48 63 169 235 247 198 76 66 141 206 246 254 255 255 
255 255 255 255 255 255 255 255 255 255 255 255 250 228 223 223 221 209 149 47 2 1 0 0 
2 50 198 241 253 254 254 254 241 168 93 46 75 175 241 255 
255 255 255 255 255 255 255 254 254 255 254 211 95 29 22 20 13 3 1 0 3 28 35 31 
24 13 62 95 186 238 252 254 254 254 254 240 158 55 56 180 
249 255 254 254 255 255 255 254 254 255 231 51 1 1 1 0 1 0 1 4 107 221 232 228 
221 197 169 109 52 67 121 184 237 253 255 255 254 240 166 56 
110 209 247 254 254 255 255 254 254 251 99 0 1 3 3 1 0 0 1 94 240 254 255 255 
254 255 254 252 233 181 121 62 68 121 187 224 248 254 254 225 
111 52 91 176 236 254 254 255 255 172 8 5 107 150 149 67 1 0 20 226 255 255 255 255 
255 254 254 255 255 255 252 233 184 111 68 53 83 148 209 243 
246 218 148 66 67 216 254 255 248 60 1 92 248 254 254 234 43 1 52 251 255 255 255 255 
255 255 255 255 255 255 255 255 255 250 239 210 162 86 47 56 
94 170 231 233 113 154 254 255 214 10 13 229 255 255 255 255 142 1 68 254 255 255 255 255 
255 255 255 255 255 255 255 255 255 255 255 254 254 249 226 203 
144 67 44 63 52 210 255 255 167 1 72 254 254 255 254 254 197 3 85 255 255 255 255 255 
255 255 255 255 255 255 255 255 254 255 255 254 255 254 255 255 
255 246 216 189 218 254 254 255 132 1 68 255 255 255 255 254 217 8 88 254 255 255 255 255 
255 255 255 255 255 255 255 255 255 255 255 255 255 255 255 255 
255 255 255 255 255 255 255 255 114 0 27 244 255 255 255 254 197 4 87 255 255 255 255 255 
255 255 255 255 255 255 255 255 255 255 255 255 255 255 255 255 
255 255 255 255 255 255 255 254 103 1 3 187 255 255 255 255 146 1 125 255 255 255 255 255 
255 255 255 255 255 255 255 255 255 255 255 255 255 255 255 255 
255 255 255 255 255 255 255 255 136 1 0 115 255 255 255 241 51 9 212 255 255 255 255 255 
255 255 255 255 255 255 255 255 255 255 255 255 255 255 255 255 
255 255 255 255 255 255 255 255 216 15 1 18 182 244 230 95 1 68 251 254 255 255 255 255 
255 255 255 255 255 255 255 255 255 255 255 255 255 255 255 255 
255 255 255 255 255 255 255 255 246 52 1 1 5 41 20 1 5 160 253 255 255 255 255 255 
255 255 255 255 255 255 255 255 255 255 255 255 255 255 255 255 
255 255 255 255 255 255 255 254 254 129 8 1 0 1 1 8 99 243 255 254 255 255 255 255 
255 255 255 255 255 255 255 255 255 255 255 255 255 255 255 255 
255 255 255 255 255 255 255 255 255 235 109 26 9 4 13 144 244 255 255 255 255 255 255 255 
255 255 255 255 255 255 255 255 255 255 255 255 255 255 255 255 
255 255 255 255 255 255 255 255 255 255 248 207 171 154 182 251 255 255 255 255 254 255 255 255 
255 254 254 255 255 255 255 255 255 255 255 255 255 255 255 255 
255 255 255 255 255 255 255 255 255 255 254 255 255 253 254 254 254 255 255 255 254 254 254 255 
255 254 254 255 255 255 255 255 255 255 255 255 255 255 255 255 
255 255 255 255 255 255 255 